<?xml version="1.0"?>
<svg width="576" height="512" xmlns="http://www.w3.org/2000/svg" xmlns:svg="http://www.w3.org/2000/svg">
 <!--!Font Awesome Free 6.6.0 by @fontawesome - https://fontawesome.com License - https://fontawesome.com/license/free Copyright 2024 Fonticons, Inc.-->
 <g class="layer">
  <title>Layer 1</title>
  <path d="m309,106c11.4,-7 19,-19.7 19,-34c0,-22.1 -17.9,-40 -40,-40s-40,17.9 -40,40c0,14.4 7.6,27 19,34l-57.3,114.6c-9.1,18.2 -32.7,23.4 -48.6,10.7l-89.1,-71.3c5,-6.7 8,-15 8,-24c0,-22.1 -17.9,-40 -40,-40s-40,17.9 -40,40s17.9,40 40,40c0.2,0 0.5,0 0.7,0l45.7,251.4c5.5,30.4 32,52.6 63,52.6l277.2,0c30.9,0 57.4,-22.1 63,-52.6l45.7,-251.4c0.2,0 0.5,0 0.7,0c22.1,0 40,-17.9 40,-40s-17.9,-40 -40,-40s-40,17.9 -40,40c0,9 3,17.3 8,24l-89.1,71.3c-15.9,12.7 -39.5,7.5 -48.6,-10.7l-57.3,-114.6z" fill="#ffbf00" id="svg_1"/>
 </g>
</svg>