<?xml version="1.0"?>
<svg width="448" height="512" xmlns="http://www.w3.org/2000/svg" xmlns:svg="http://www.w3.org/2000/svg">
 <!--!Font Awesome Free 6.6.0 by @fontawesome - https://fontawesome.com License - https://fontawesome.com/license/free Copyright 2024 Fonticons, Inc.-->
 <g class="layer">
  <title>Layer 1</title>
  <path d="m144,144l0,48l160,0l0,-48c0,-44.2 -35.8,-80 -80,-80s-80,35.8 -80,80zm-64,48l0,-48c0,-79.5 64.5,-144 144,-144s144,64.5 144,144l0,48l16,0c35.3,0 64,28.7 64,64l0,192c0,35.3 -28.7,64 -64,64l-320,0c-35.3,0 -64,-28.7 -64,-64l0,-192c0,-35.3 28.7,-64 64,-64l16,0z" fill="#ffffff" id="svg_1" stroke="#ffffff"/>
 </g>
</svg>