<?xml version="1.0"?>
<svg width="900" height="900" xmlns="http://www.w3.org/2000/svg" xmlns:svg="http://www.w3.org/2000/svg">
 <!--!Font Awesome Free 6.6.0 by @fontawesome - https://fontawesome.com License - https://fontawesome.com/license/free Copyright 2024 Fonticons, Inc.-->
 <g class="layer">
  <title>Layer 1</title>
  <path d="m551.14,329.39c5.34,0 9.71,4.26 9.71,9.46l0,189.29c0,5.21 -4.37,9.46 -9.71,9.46l-194.29,0c-5.34,0 -9.71,-4.26 -9.71,-9.46l0,-189.29c0,-5.21 4.37,-9.46 9.71,-9.46l194.29,0zm-194.29,-28.39c-21.43,0 -38.86,16.98 -38.86,37.86l0,189.29c0,20.88 17.43,37.86 38.86,37.86l194.29,0c21.43,0 38.86,-16.98 38.86,-37.86l0,-189.29c0,-20.88 -17.43,-37.86 -38.86,-37.86l-194.29,0z" fill="#ffffff" id="svg_1"/>
 </g>
</svg>