<?xml version="1.0"?>
<svg width="512" height="512" xmlns="http://www.w3.org/2000/svg" xmlns:svg="http://www.w3.org/2000/svg">
 <!--!Font Awesome Free 6.6.0 by @fontawesome - https://fontawesome.com License - https://fontawesome.com/license/free Copyright 2024 Fonticons, Inc.-->
 <g class="layer">
  <title>Layer 1</title>
  <path d="m256,0c4.6,0 9.2,1 13.4,2.9l188.3,79.9c22,9.3 38.4,31 38.3,57.2c-0.5,99.2 -41.3,280.7 -213.6,363.2c-16.7,8 -36.1,8 -52.8,0c-172.3,-82.5 -213.1,-264 -213.6,-363.2c-0.1,-26.2 16.3,-47.9 38.3,-57.2l188.4,-79.9c4.1,-1.9 8.7,-2.9 13.3,-2.9zm0,66.8l0,378.1c138,-66.9 175.1,-214.8 176,-303.5l-176,-74.6s0,0 0,0z" fill="#eabc3f" id="svg_1"/>
 </g>
</svg>