<?xml version="1.0"?>
<svg width="700" height="700" xmlns="http://www.w3.org/2000/svg" xmlns:svg="http://www.w3.org/2000/svg">
 <!--!Font Awesome Free 6.6.0 by @fontawesome - https://fontawesome.com License - https://fontawesome.com/license/free Copyright 2024 Fonticons, Inc.-->
 <g class="layer">
  <title>Layer 1</title>
  <path d="m351.99,176c-73.35,0 -133.65,29.6 -179.89,67.7c-43.31,35.8 -73.24,78.3 -88.54,108.3c15.3,30 45.22,72.5 88.42,108.3c46.35,38.1 106.65,67.7 180,67.7s133.65,-29.6 179.89,-67.7c43.31,-35.8 73.24,-78.3 88.54,-108.3c-15.3,-30 -45.22,-72.5 -88.42,-108.3c-46.35,-38.1 -106.65,-67.7 -180,-67.7zm-216.67,32.6c52.99,-43.8 125.77,-80.6 216.67,-80.6s163.69,36.8 216.67,80.6c52.65,43.5 87.86,95.4 104.62,131.1c3.71,7.9 3.71,16.7 0,24.6c-16.76,35.7 -51.97,87.7 -104.62,131.1c-52.99,43.8 -125.77,80.6 -216.67,80.6s-163.69,-36.8 -216.67,-80.6c-52.65,-43.4 -87.86,-95.4 -104.51,-131.1c-3.71,-7.9 -3.71,-16.7 0,-24.6c16.65,-35.7 51.86,-87.7 104.51,-131.1zm216.67,223.4c49.72,0 90,-35.8 90,-80s-40.27,-80 -90,-80c-0.79,0 -1.46,0 -2.25,0c1.46,5.1 2.25,10.5 2.25,16c0,35.3 -32.29,64 -72,64c-6.19,0 -12.26,-0.7 -18,-2c0,0.7 0,1.3 0,2c0,44.2 40.27,80 90,80zm0,-208a144,128 0 1 1 0,256a144,128 0 1 1 0,-256z" fill="#c7c7c7" id="svg_1"/>
 </g>
</svg>